<svg xmlns="http://www.w3.org/2000/svg" style="display: none">
  <symbol fill="none"  viewBox="0 0 64 64" id="facebook">
    <path d="M34.8925 36L36.67 24.4175H25.5562V16.9013C25.5562 13.7325 27.1087 10.6438 32.0862 10.6438H37.1387V0.7825C37.1387 0.7825 32.5537 0 28.17 0C19.0175 0 13.035 5.5475 13.035 15.59V24.4175H2.86124V36H13.035V64H25.5562V36H34.8925Z" fill="currentColor"></path>
  </symbol>
  <symbol fill="none" viewBox="0 0 64 64" id="twitter">
    <path d="M57.4212 18.9645C57.4619 19.533 57.4619 20.1016 57.4619 20.6701C57.4619 38.0101 44.264 57.9899 20.1421 57.9899C12.7106 57.9899 5.80713 55.8375 0 52.1016C1.05587 52.2234 2.071 52.264 3.1675 52.264C9.29938 52.264 14.9441 50.193 19.4517 46.66C13.6852 46.5381 8.85275 42.7615 7.18775 37.5635C8 37.6853 8.81213 37.7665 9.665 37.7665C10.8426 37.7665 12.0204 37.604 13.1167 37.3199C7.10662 36.1015 2.59888 30.8224 2.59888 24.4468V24.2844C4.345 25.259 6.37563 25.8681 8.52775 25.9493C4.99475 23.5939 2.68012 19.5736 2.68012 15.0254C2.68012 12.5889 3.32975 10.3554 4.46688 8.40613C10.9237 16.3655 20.6294 21.5634 31.5125 22.132C31.3095 21.1574 31.1876 20.1423 31.1876 19.127C31.1876 11.8985 37.0354 6.01025 44.3044 6.01025C48.081 6.01025 51.4921 7.594 53.8881 10.1524C56.8525 9.58388 59.6951 8.48738 62.213 6.98488C61.2383 10.0306 59.1672 12.589 56.4465 14.2133C59.0861 13.9291 61.6445 13.198 63.9997 12.1829C62.2132 14.7818 59.9796 17.0964 57.4212 18.9645Z" fill="currentColor"></path>
  </symbol>
  <symbol fill="none"  viewBox="0 0 64 64" id="instagram">
    <path d="M8 3.40625C9.96875 3.40625 11.5938 5.03125 11.5938 7C11.5938 9 9.96875 10.5938 8 10.5938C6 10.5938 4.40625 9 4.40625 7C4.40625 5.03125 6 3.40625 8 3.40625ZM8 9.34375C9.28125 9.34375 10.3125 8.3125 10.3125 7C10.3125 5.71875 9.28125 4.6875 8 4.6875C6.6875 4.6875 5.65625 5.71875 5.65625 7C5.65625 8.3125 6.71875 9.34375 8 9.34375ZM12.5625 3.28125C12.5625 3.75 12.1875 4.125 11.7188 4.125C11.25 4.125 10.875 3.75 10.875 3.28125C10.875 2.8125 11.25 2.4375 11.7188 2.4375C12.1875 2.4375 12.5625 2.8125 12.5625 3.28125ZM14.9375 4.125C15 5.28125 15 8.75 14.9375 9.90625C14.875 11.0312 14.625 12 13.8125 12.8438C13 13.6562 12 13.9062 10.875 13.9688C9.71875 14.0312 6.25 14.0312 5.09375 13.9688C3.96875 13.9062 3 13.6562 2.15625 12.8438C1.34375 12 1.09375 11.0312 1.03125 9.90625C0.96875 8.75 0.96875 5.28125 1.03125 4.125C1.09375 3 1.34375 2 2.15625 1.1875C3 0.375 3.96875 0.125 5.09375 0.0625C6.25 0 9.71875 0 10.875 0.0625C12 0.125 13 0.375 13.8125 1.1875C14.625 2 14.875 3 14.9375 4.125ZM13.4375 11.125C13.8125 10.2188 13.7188 8.03125 13.7188 7C13.7188 6 13.8125 3.8125 13.4375 2.875C13.1875 2.28125 12.7188 1.78125 12.125 1.5625C11.1875 1.1875 9 1.28125 8 1.28125C6.96875 1.28125 4.78125 1.1875 3.875 1.5625C3.25 1.8125 2.78125 2.28125 2.53125 2.875C2.15625 3.8125 2.25 6 2.25 7C2.25 8.03125 2.15625 10.2188 2.53125 11.125C2.78125 11.75 3.25 12.2188 3.875 12.4688C4.78125 12.8438 6.96875 12.75 8 12.75C9 12.75 11.1875 12.8438 12.125 12.4688C12.7188 12.2188 13.2188 11.75 13.4375 11.125Z" fill="currentColor"></path>
  </symbol>
  <symbol fill="none" viewBox="0 0 41 40" id="Arrow">
    <path d="M23.9473 19.111C24.0031 19.1669 24.031 19.231 24.031 19.3036C24.031 19.3761 24.0031 19.4403 23.9473 19.4961L20.0467 23.3968C19.9909 23.4526 19.9267 23.4805 19.8541 23.4805C19.7816 23.4805 19.7174 23.4526 19.6616 23.3968L15.761 19.4961C15.7051 19.4403 15.6772 19.3761 15.6772 19.3036C15.6772 19.231 15.7051 19.1669 15.761 19.111L16.1795 18.6925C16.2353 18.6367 16.2995 18.6088 16.372 18.6088C16.4445 18.6088 16.5087 18.6367 16.5645 18.6925L19.8541 21.9821L23.1438 18.6925C23.1996 18.6367 23.2637 18.6088 23.3363 18.6088C23.4088 18.6088 23.473 18.6367 23.5288 18.6925L23.9473 19.111Z" fill="white"></path>
    <path opacity="0.7" d="M20.0439 0.5C30.8385 0.500175 39.5869 9.23158 39.5869 20C39.5869 30.7684 30.8385 39.4998 20.0439 39.5C9.24927 39.5 0.5 30.7685 0.5 20C0.5 9.23147 9.24927 0.5 20.0439 0.5Z" stroke="white"></path>
  </symbol>
  <symbol fill="none" viewBox="0 0 40 40" id="Left">
    <circle opacity="0.5" cx="20" cy="20" r="19.5" stroke="white"></circle>
    <path d="M21.8984 17.25C21.8984 17.1797 21.8672 17.1172 21.8203 17.0703L21.4297 16.6797C21.3828 16.6328 21.3125 16.6016 21.25 16.6016C21.1875 16.6016 21.1172 16.6328 21.0703 16.6797L17.4297 20.3203C17.3828 20.3672 17.3516 20.4375 17.3516 20.5C17.3516 20.5625 17.3828 20.6328 17.4297 20.6797L21.0703 24.3203C21.1172 24.3672 21.1875 24.3984 21.25 24.3984C21.3125 24.3984 21.3828 24.3672 21.4297 24.3203L21.8203 23.9297C21.8672 23.8828 21.8984 23.8125 21.8984 23.75C21.8984 23.6875 21.8672 23.6172 21.8203 23.5703L18.75 20.5L21.8203 17.4297C21.8672 17.3828 21.8984 17.3125 21.8984 17.25Z" fill="white"></path>
  </symbol>
  <symbol fill="none" viewBox="0 0 40 40" id="Right">
    <circle opacity="0.5" cx="20" cy="20" r="19.5" stroke="white"></circle>
    <path d="M22.6484 20.5C22.6484 20.4375 22.6172 20.3672 22.5703 20.3203L18.9297 16.6797C18.8828 16.6328 18.8125 16.6016 18.75 16.6016C18.6875 16.6016 18.6172 16.6328 18.5703 16.6797L18.1797 17.0703C18.1328 17.1172 18.1016 17.1875 18.1016 17.25C18.1016 17.3125 18.1328 17.3828 18.1797 17.4297L21.25 20.5L18.1797 23.5703C18.1328 23.6172 18.1016 23.6875 18.1016 23.75C18.1016 23.8203 18.1328 23.8828 18.1797 23.9297L18.5703 24.3203C18.6172 24.3672 18.6875 24.3984 18.75 24.3984C18.8125 24.3984 18.8828 24.3672 18.9297 24.3203L22.5703 20.6797C22.6172 20.6328 22.6484 20.5625 22.6484 20.5Z" fill="white"></path>
  </symbol>
</svg>