<svg xmlns="http://www.w3.org/2000/svg" style="display: none">
  <symbol id="instagram" fill="none" viewBox="0 0 24 24">
    <path d="M12.0029 5.8467C8.59691 5.8467 5.84962 8.594 5.84962 12C5.84962 15.406 8.59691 18.1533 12.0029 18.1533C15.4089 18.1533 18.1562 15.406 18.1562 12C18.1562 8.594 15.4089 5.8467 12.0029 5.8467ZM12.0029 16.0004C9.80187 16.0004 8.00247 14.2064 8.00247 12C8.00247 9.7936 9.79651 7.99955 12.0029 7.99955C14.2093 7.99955 16.0034 9.7936 16.0034 12C16.0034 14.2064 14.204 16.0004 12.0029 16.0004ZM19.8431 5.595C19.8431 6.39295 19.2005 7.03024 18.4079 7.03024C17.61 7.03024 16.9727 6.38759 16.9727 5.595C16.9727 4.80241 17.6153 4.15977 18.4079 4.15977C19.2005 4.15977 19.8431 4.80241 19.8431 5.595ZM23.9186 7.05166C23.8275 5.12909 23.3884 3.42608 21.9799 2.02298C20.5768 0.619882 18.8738 0.180743 16.9513 0.0843468C14.9698 -0.0281156 9.03069 -0.0281156 7.04922 0.0843468C5.132 0.175388 3.429 0.614526 2.02054 2.01763C0.612085 3.42073 0.178302 5.12373 0.0819054 7.0463C-0.030557 9.02778 -0.030557 14.9669 0.0819054 16.9483C0.172946 18.8709 0.612085 20.5739 2.02054 21.977C3.429 23.3801 5.12665 23.8193 7.04922 23.9157C9.03069 24.0281 14.9698 24.0281 16.9513 23.9157C18.8738 23.8246 20.5768 23.3855 21.9799 21.977C23.383 20.5739 23.8222 18.8709 23.9186 16.9483C24.031 14.9669 24.031 9.03314 23.9186 7.05166ZM21.3587 19.0744C20.941 20.1241 20.1323 20.9327 19.0773 21.3558C17.4975 21.9824 13.7488 21.8378 12.0029 21.8378C10.2571 21.8378 6.50297 21.977 4.9285 21.3558C3.87885 20.9381 3.07019 20.1294 2.64712 19.0744C2.02054 17.4946 2.16514 13.7458 2.16514 12C2.16514 10.2542 2.0259 6.50006 2.64712 4.92558C3.06484 3.87593 3.87349 3.06728 4.9285 2.6442C6.50833 2.01763 10.2571 2.16222 12.0029 2.16222C13.7488 2.16222 17.5029 2.02298 19.0773 2.6442C20.127 3.06192 20.9356 3.87058 21.3587 4.92558C21.9853 6.50541 21.8407 10.2542 21.8407 12C21.8407 13.7458 21.9853 17.4999 21.3587 19.0744Z" fill="currentColor"></path>
  </symbol>
  <symbol id="facebook" fill="none"  viewBox="0 0 24 24">
    <path d="M12.5845 13.5L13.251 9.15656H9.08338V6.33797C9.08338 5.14969 9.66557 3.99141 11.5321 3.99141H13.4268V0.293438C13.4268 0.293438 11.7074 0 10.0635 0C6.63135 0 4.38791 2.08031 4.38791 5.84625V9.15656H0.572754V13.5H4.38791V24H9.08338V13.5H12.5845Z" fill="currentColor"></path>
  </symbol>
  <symbol id="linkedin" fill="none"  viewBox="0 0 24 24">
    <path d="M5.37226 24H0.396437V7.97643H5.37226V24ZM2.88167 5.79066C1.29056 5.79066 0 4.47278 0 2.88167C1.13885e-08 2.1174 0.303604 1.38444 0.844022 0.844022C1.38444 0.303604 2.1174 0 2.88167 0C3.64594 0 4.3789 0.303604 4.91932 0.844022C5.45974 1.38444 5.76334 2.1174 5.76334 2.88167C5.76334 4.47278 4.47224 5.79066 2.88167 5.79066ZM23.9952 24H19.0301V16.1998C19.0301 14.3409 18.9926 11.9569 16.443 11.9569C13.856 11.9569 13.4596 13.9766 13.4596 16.0659V24H8.48912V7.97643H13.2614V10.1622H13.331C13.9953 8.90323 15.618 7.57463 18.039 7.57463C23.0748 7.57463 24.0005 10.8908 24.0005 15.198V24H23.9952Z" fill="currentColor"></path>
  </symbol>
  <symbol id="twitter" fill="none" viewBox="0 0 24 24">
    <path d="M19.83 8.00001C19.83 8.17001 19.83 8.35001 19.83 8.52001C19.8393 10.0302 19.5487 11.5272 18.9751 12.9242C18.4014 14.3212 17.5562 15.5904 16.4883 16.6583C15.4204 17.7262 14.1512 18.5714 12.7542 19.1451C11.3572 19.7187 9.86017 20.0093 8.34999 20C6.15213 20.0064 3.9992 19.3779 2.14999 18.19C2.47999 18.19 2.78999 18.19 3.14999 18.19C4.96345 18.19 6.72433 17.5808 8.14999 16.46C7.30493 16.4524 6.48397 16.1774 5.80489 15.6744C5.12581 15.1714 4.62349 14.4662 4.36999 13.66C4.62464 13.7006 4.88213 13.7207 5.13999 13.72C5.49714 13.7174 5.85281 13.6738 6.19999 13.59C5.2965 13.4056 4.48448 12.9147 3.90135 12.2003C3.31822 11.486 2.99981 10.5921 2.99999 9.67001C3.55908 9.97841 4.18206 10.153 4.81999 10.18C4.25711 9.80767 3.79593 9.30089 3.47815 8.7055C3.16038 8.11011 2.99604 7.44489 2.99999 6.77001C3.00124 6.06749 3.18749 5.37769 3.53999 4.77001C4.55172 6.01766 5.81423 7.03889 7.24575 7.76757C8.67727 8.49625 10.2459 8.91613 11.85 9.00001C11.7865 8.69737 11.753 8.38922 11.75 8.08001C11.7239 7.25689 11.9526 6.44578 12.4047 5.75746C12.8569 5.06913 13.5104 4.53714 14.2762 4.23411C15.0419 3.93109 15.8826 3.87181 16.6833 4.06437C17.484 4.25693 18.2057 4.69195 18.75 5.31001C19.655 5.12822 20.5214 4.78981 21.31 4.31001C21.0088 5.24317 20.3754 6.0332 19.53 6.53001C20.3337 6.44316 21.1194 6.23408 21.86 5.91001C21.3116 6.71097 20.6361 7.41694 19.86 8.00001H19.83Z" fill="currentColor"></path>
  </symbol>
</svg>


